<svg width="1920" height="1080" xmlns="http://www.w3.org/2000/svg">
  <!-- Background gradient -->
  <defs>
    <linearGradient id="bg-gradient" x1="0%" y1="0%" x2="100%" y2="100%">
      <stop offset="0%" stop-color="#f8e9d6" />
      <stop offset="100%" stop-color="#f0d4b4" />
    </linearGradient>
    
    <!-- Paw print pattern -->
    <pattern id="paw-pattern" x="0" y="0" width="200" height="200" patternUnits="userSpaceOnUse">
      <!-- Main paw pad -->
      <path d="M50,60 C60,40 90,40 100,60 C110,80 90,110 75,110 C60,110 40,80 50,60 Z" fill="#e8c9a3" opacity="0.3" />
      <!-- Toe beans -->
      <circle cx="60" cy="45" r="10" fill="#e8c9a3" opacity="0.3" />
      <circle cx="90" cy="45" r="10" fill="#e8c9a3" opacity="0.3" />
      <circle cx="50" cy="70" r="10" fill="#e8c9a3" opacity="0.3" />
      <circle cx="100" cy="70" r="10" fill="#e8c9a3" opacity="0.3" />
    </pattern>
  </defs>
  
  <!-- Main background -->
  <rect width="100%" height="100%" fill="url(#bg-gradient)" />
  
  <!-- Paw pattern overlay -->
  <rect width="100%" height="100%" fill="url(#paw-pattern)" opacity="0.7" />
  
  <!-- Decorative elements -->
  <circle cx="200" cy="200" r="100" fill="#ffffff" opacity="0.1" />
  <circle cx="1700" cy="900" r="150" fill="#ffffff" opacity="0.1" />
  <circle cx="1000" cy="300" r="80" fill="#ffffff" opacity="0.1" />
  <circle cx="500" cy="800" r="120" fill="#ffffff" opacity="0.1" />
  
  <!-- Subtle wave patterns -->
  <path d="M0,400 C300,350 600,450 900,400 C1200,350 1500,450 1800,400 L1920,400 L1920,1080 L0,1080 Z" fill="#ffffff" opacity="0.05" />
  <path d="M0,600 C300,550 600,650 900,600 C1200,550 1500,650 1800,600 L1920,600 L1920,1080 L0,1080 Z" fill="#ffffff" opacity="0.05" />
</svg>